# xmcd CD database file
#
# Track frame offsets:
#	150
#	39468
#	57750
#	89491
#	122789
#	143433
#	187653
#	213249
#	254190
#	295290
#	314276
#
# Disc length: 4500 seconds
#
# Revision: 0
# Processed by: cddbd v1.5.2PL0 Copyright (c) Steve Scherf et al.
# Submitted via: CDex 1.77
#
DISCID=9e11920b
DTITLE=Grant Green - The 1961 Summer Sessions
DYEAR=2015
DGENRE=Jazz
TTITLE0=FREEDOM MARCH 
TTITLE1=SUNDAY MORNIN'
TTITLE2=EXODUS 
TTITLE3=GOD BLESS THE CHILD 
TTITLE4=COME SUNRISE 
TTITLE5=SO WHAT 
TTITLE6=TRACIN' TRACEY 
TTITLE7=GRANTSTAND 
TTITLE8=MY FUNNY VALENTINE 
TTITLE9=OLD FOLKS 
TTITLE10=GREEN'S GREENERY 
EXTD=YEAR: 2015
EXTT0=
EXTT1=
EXTT2=
EXTT3=
EXTT4=
EXTT5=
EXTT6=
EXTT7=
EXTT8=
EXTT9=
EXTT10=
PLAYORDER=
